<svg width="84" height="48" viewBox="0 0 84 48" fill="none" xmlns="http://www.w3.org/2000/svg">
<g clip-path="url(#clip0_1346_7879)">
<path fill-rule="evenodd" clip-rule="evenodd" d="M58.8302 38.4986H63.4624V37.3721H58.8302V38.4986ZM82.6682 36.5973C83.2344 36.5973 83.6946 37.0575 83.6946 37.6261C83.6946 38.1935 83.2345 38.6548 82.6682 38.6548C82.0996 38.6548 81.6383 38.1935 81.6383 37.6261C81.6383 37.0575 82.0996 36.5973 82.6682 36.5973ZM81.6669 47.5268H83.654V39.5152H81.6669V47.5268ZM78.1183 46.6626C77.8322 46.9654 77.5854 47.1811 77.3744 47.3146C77.1623 47.4446 76.9429 47.5423 76.7164 47.6067C76.4864 47.6758 76.248 47.7056 75.9905 47.7056C75.3337 47.7056 74.8068 47.4839 74.411 47.0405C74.0141 46.5923 73.815 46.0499 73.815 45.4027C73.815 44.6147 74.1119 43.9567 74.7066 43.4275C75.3003 42.9006 76.2587 42.636 77.589 42.636H78.1182V41.9076C78.1182 41.4165 77.9919 41.084 77.7427 40.917C77.4948 40.7442 77.1753 40.6596 76.7892 40.6596C76.0298 40.6596 75.5184 40.7668 74.7234 41.2425V39.9312C75.6269 39.5629 76.2539 39.334 77.1468 39.334C77.6891 39.334 78.179 39.4127 78.6094 39.5748C79.0373 39.7321 79.3818 39.9813 79.6404 40.321C79.8955 40.6595 80.0243 41.1638 80.0243 41.8349V45.3763C80.0243 45.8126 80.0874 46.0737 80.2066 46.1738C80.3318 46.2692 80.4534 46.3192 80.5762 46.3192C80.6465 46.3192 80.7359 46.3109 80.8408 46.2894L80.8909 47.5005C80.4701 47.6399 80.097 47.7055 79.7715 47.7055C79.4044 47.7055 79.0861 47.6399 78.8215 47.5052C78.5545 47.3717 78.3482 47.0904 78.2076 46.6625L78.1183 46.6626ZM78.1183 45.5016V43.8757H77.6498C77.0013 43.8757 76.5173 43.9997 76.2003 44.2536C75.8808 44.5015 75.7235 44.815 75.7235 45.1881C75.7235 45.4957 75.8188 45.7472 76.0119 45.9427C76.2039 46.1405 76.4303 46.2407 76.6902 46.2407C76.9226 46.2407 77.1587 46.1787 77.3971 46.0535C77.639 45.9307 77.8811 45.7472 78.1183 45.5016ZM70.9745 47.5257V46.0142C70.7254 46.5804 70.4023 47.0036 70.0078 47.2825C69.6144 47.565 69.1436 47.7057 68.6 47.7057C67.7107 47.7057 67.0194 47.3433 66.533 46.6173C66.0431 45.8878 65.7964 44.9295 65.7964 43.7386C65.7964 42.4798 66.0681 41.4297 66.6153 40.5905C67.1624 39.7514 67.9265 39.3341 68.9051 39.3341C69.1698 39.3341 69.4153 39.3627 69.6347 39.4259C69.854 39.4831 70.0638 39.5785 70.2688 39.7072C70.4726 39.8324 70.7099 40.0374 70.9745 40.3259V36.4482H72.9699V47.526L70.9745 47.5257ZM70.9745 41.6073C70.7051 41.2711 70.4476 41.0387 70.2116 40.9171C69.9708 40.7943 69.7253 40.7335 69.4773 40.7335C68.9552 40.7335 68.5607 41.016 68.2996 41.5763C68.0421 42.1377 67.9122 42.7981 67.9122 43.5562C67.9122 44.3048 68.0326 44.9008 68.2746 45.3466C68.5154 45.7924 68.8658 46.0141 69.3283 46.0141C69.618 46.0141 69.9089 45.9021 70.1925 45.6768C70.4786 45.4479 70.7397 45.1511 70.9745 44.7792L70.9745 41.6073ZM62.5839 47.5257V46.1441C62.2311 46.758 61.6183 47.0608 61.1821 47.3206C60.7506 47.5781 60.3049 47.7057 59.8543 47.7057C59.269 47.7057 58.7719 47.5006 58.3535 47.0965C57.9351 46.6924 57.7253 46.0512 57.7253 45.1738V39.5153H59.7124V44.6433C59.7124 45.0784 59.747 45.3764 59.8221 45.5326C59.896 45.6887 59.9961 45.8044 60.1248 45.8878C60.2536 45.9665 60.3942 46.0046 60.5492 46.0046C60.8246 46.0046 61.1094 45.9057 61.4039 45.709C61.7007 45.5135 62.2395 45.2608 62.584 44.6863V39.5153H64.5711V47.5256L62.5839 47.5257ZM52.3351 47.5257V39.5153H54.3222V41.0268C54.5594 40.5107 54.8824 40.1018 55.2949 39.7954C55.7085 39.4879 56.165 39.3341 56.6716 39.3341C56.7932 39.3341 56.9136 39.3472 57.0411 39.3782V41.3022C56.7634 41.1901 56.5035 41.1341 56.2556 41.1341C55.861 41.1341 55.5046 41.2426 55.1816 41.4583C54.8574 41.6753 54.5713 42.0007 54.3221 42.4405V47.5257L52.3351 47.5257ZM50.8712 47.3039C50.0463 47.5364 49.4443 47.6759 49.0689 47.72C48.6899 47.77 48.2917 47.7939 47.871 47.7939C46.1354 47.7939 44.8754 47.2956 44.0875 46.2943C43.2984 45.299 42.905 44.0295 42.905 42.499C42.905 41.5 43.0767 40.5965 43.4224 39.799C43.7681 38.998 44.2937 38.3722 44.9958 37.9156C45.6991 37.4591 46.6492 37.2338 47.8519 37.2338C48.8639 37.2338 49.8677 37.3637 50.8677 37.6212V39.2602C50.0273 38.9444 49.4242 38.7608 49.0582 38.7024C48.6898 38.644 48.3418 38.6118 48.008 38.6118C46.9221 38.6118 46.1425 38.9944 45.6657 39.755C45.1901 40.5167 44.9493 41.4392 44.9493 42.5192C44.9493 43.7041 45.2306 44.6434 45.7944 45.3408C46.3594 46.0405 47.1509 46.3898 48.1713 46.3898C48.3918 46.3898 48.6505 46.3516 48.9473 46.2849V42.9759H50.8712V47.3039ZM36.1335 47.6413C35.3039 47.6413 34.5911 47.472 33.9962 47.1359C33.4026 46.7985 32.9473 46.3003 32.6337 45.6423C32.3214 44.9879 32.1653 44.2572 32.1653 43.4526C32.1653 42.6563 32.3214 41.9328 32.629 41.2795C32.9365 40.6239 33.3883 40.1268 33.9855 39.7836C34.5839 39.4403 35.2978 39.2674 36.1335 39.2674C36.9715 39.2674 37.689 39.4403 38.2827 39.7836C38.8775 40.1269 39.3292 40.6239 39.6404 41.2795C39.9515 41.9328 40.1053 42.6563 40.1053 43.4526C40.1053 44.2572 39.9515 44.9879 39.638 45.6423C39.3257 46.3003 38.8691 46.7986 38.2755 47.1359C37.6819 47.472 36.9679 47.6413 36.1335 47.6413ZM36.1335 46.2943C36.72 46.2943 37.1623 46.0249 37.4602 45.4849C37.7558 44.9509 37.9036 44.2738 37.9036 43.4525C37.9036 42.6443 37.7558 41.9685 37.4602 41.4297C37.1622 40.8861 36.72 40.6179 36.1335 40.6179C35.5482 40.6179 35.1096 40.8861 34.8127 41.4297C34.5159 41.9685 34.3681 42.6443 34.3681 43.4525C34.3681 44.2738 34.5159 44.9509 34.8127 45.4849C35.1096 46.0249 35.5482 46.2943 36.1335 46.2943ZM24.5235 47.4839V39.476H26.5512V40.9875C26.9159 40.3688 27.3212 39.9314 27.7646 39.6762C28.208 39.421 28.6586 39.2924 29.114 39.2924C29.7088 39.2924 30.2179 39.4962 30.6457 39.9027C31.0736 40.3092 31.287 40.9505 31.287 41.8266V47.4839H29.2594V42.3582C29.2594 41.9208 29.2212 41.6239 29.1473 41.4666C29.0687 41.3129 28.9674 41.196 28.8386 41.1138C28.7075 41.0351 28.5621 40.9934 28.4035 40.9934C28.1222 40.9934 27.8325 41.0935 27.5322 41.2926C27.2294 41.4869 26.9028 41.8707 26.5512 42.4453V47.4839L24.5235 47.4839ZM20.7901 47.5304V46.0189C20.4182 46.6292 20.0034 47.0655 19.5445 47.3266C19.0867 47.5817 18.6182 47.7116 18.1427 47.7116C17.5288 47.7116 17.0007 47.5066 16.5585 47.1025C16.1175 46.696 15.8981 46.0547 15.8981 45.1773V39.5188H17.9925V44.648C17.9925 45.0831 18.0318 45.3811 18.1081 45.5373C18.188 45.6923 18.2941 45.8091 18.4276 45.8914C18.5623 45.97 18.7125 46.0117 18.877 46.0117C19.1666 46.0117 19.467 45.9128 19.7782 45.7126C20.0893 45.5183 20.4278 45.1344 20.7902 44.5599V39.5188H22.8869V47.5304L20.7901 47.5304ZM12.4031 46.6626C12.117 46.9654 11.8691 47.1812 11.6593 47.3147C11.4483 47.4446 11.2278 47.5423 11.0013 47.6067C10.7724 47.6758 10.5316 47.7057 10.2741 47.7057C9.61853 47.7057 9.09043 47.4839 8.69468 47.0405C8.29893 46.5923 8.10106 46.0499 8.10106 45.4027C8.10106 44.6148 8.39668 43.9568 8.99035 43.4275C9.58278 42.9006 10.5436 42.636 11.8751 42.636H12.4031V41.9077C12.4031 41.4165 12.2768 41.084 12.0276 40.9171C11.7785 40.7442 11.4602 40.6596 11.0752 40.6596C10.3147 40.6596 9.80206 40.7669 9.00938 41.2425V39.9312C9.90938 39.5629 10.5388 39.334 11.4292 39.334C11.9751 39.334 12.4626 39.4127 12.8942 39.5748C13.3221 39.7322 13.6666 39.9813 13.9253 40.321C14.1815 40.6596 14.3091 41.1638 14.3091 41.8349V45.3764C14.3091 45.8126 14.3711 46.0737 14.4927 46.1738C14.6166 46.2692 14.7382 46.3192 14.8598 46.3192C14.9301 46.3192 15.0195 46.3109 15.1268 46.2894L15.1757 47.5005C14.7537 47.64 14.3806 47.7055 14.0552 47.7055C13.6893 47.7055 13.371 47.64 13.104 47.5053C12.8393 47.3718 12.6343 47.0904 12.4901 46.6625L12.4031 46.6626ZM12.4031 45.5016V43.8757H11.9334C11.285 43.8757 10.801 43.9997 10.4827 44.2536C10.1645 44.5015 10.0071 44.815 10.0071 45.1881C10.0071 45.4957 10.1037 45.7472 10.2956 45.9427C10.4887 46.1406 10.7152 46.2407 10.9738 46.2407C11.2051 46.2407 11.4435 46.1787 11.6819 46.0535C11.9215 45.9308 12.1623 45.7472 12.4031 45.5016ZM0.320801 47.5388V37.3182H2.32454V42.2794L6.04129 37.3182H7.7518L4.08871 42.1209L8.58743 47.5386H6.00674L2.32463 42.5107V47.5386L0.320801 47.5388Z" fill="#191E50"/>
<path fill-rule="evenodd" clip-rule="evenodd" d="M33.3208 15.6266C38.0054 18.7878 42.6782 22.7775 47.2794 24.3883C50.108 25.3789 53.1691 25.7103 56.0394 25.2251C56.7689 25.1011 63.5169 24.2966 69.5719 16.726C67.071 19.3961 64.1304 20.2854 61.2946 20.7312C54.8279 21.7515 48.4443 18.8466 45.4709 16.7928C43.2382 15.2515 40.9245 13.6495 38.5822 12.8734C40.9245 12.0962 43.2382 10.493 45.4709 8.95286C48.445 6.89897 54.8283 3.99172 61.2946 5.01326C64.1304 5.46146 67.0711 6.34954 69.5719 9.02083C63.5165 1.44797 56.7688 0.645687 56.0394 0.520544C53.169 0.035393 50.1078 0.365582 47.2794 1.35734C42.4779 3.03811 37.6005 7.30788 32.7105 10.5253C31.2527 11.4849 29.852 12.3992 28.1772 12.8975C29.7042 13.3016 31.6949 14.5299 33.3208 15.6266Z" fill="#191E50"/>
<path fill-rule="evenodd" clip-rule="evenodd" d="M69.6673 16.5815C70.2895 15.7077 70.5613 14.7374 70.4838 13.6718C70.1656 9.30419 61.849 7.24319 56.6358 10.1994C54.5581 11.3771 53.1146 12.6609 51.3969 13.4476C50.4349 13.8863 49.461 14.2129 48.405 14.2904C51.2229 16.6971 53.471 16.8044 56.7908 15.9449C59.188 15.3251 61.243 12.6478 64.8155 12.4499C66.0921 12.3784 67.6656 12.5226 68.736 13.1735C69.7421 13.7838 70.3062 14.84 69.6673 16.5815ZM19.4376 9.49137C23.8206 6.43265 28.1907 2.81962 32.4961 1.31174C36.0495 0.0684515 39.56 -0.270034 43.0013 0.874269C36.5703 3.15701 30.6318 10.7211 23.7087 12.8246L23.6229 12.8555L23.7087 12.8865C26.3514 13.6578 28.8213 15.0822 31.179 16.769C35.2427 19.6787 39.0178 23.2416 43.0865 24.6863C39.6451 25.8307 36.05 25.6399 32.4965 24.3966C28.5914 23.0306 24.6542 19.8444 20.6816 16.9978C19.9211 16.453 19.157 15.9274 18.393 15.4279C16.8672 14.4314 15.3259 13.4599 13.6118 12.8329C15.6311 12.0772 17.617 10.7624 19.4384 9.4917" fill="#191E50"/>
</g>
<defs>
<clipPath id="clip0_1346_7879">
<rect width="84" height="48" fill="white"/>
</clipPath>
</defs>
</svg>
